Coordinates
version=1
nRows=21
nColumns=22
inDegrees=yes

Units are S.I. units (second, meters, Newtons, ...)
If the header above contains a line with 'inDegrees', this indicates whether rotational values are in degrees (yes) or radians (no).

endheader
time	pelvis_tilt	pelvis_list	pelvis_rotation	pelvis_tx	pelvis_ty	pelvis_tz	hip_flexion_r	hip_adduction_r	hip_rotation_r	knee_angle_r	ankle_angle_r	subtalar_angle_r	hip_flexion_l	hip_adduction_l	hip_rotation_l	knee_angle_l	ankle_angle_l	subtalar_angle_l	lumbar_extension	lumbar_bending	lumbar_rotation
      5.41000000	      0.52105819	     -2.27405445	    283.21685085	     -0.64177586	      1.07264111	      0.25158463	     20.00921607	     -6.55171762	     -1.34104712	    -32.28207110	      8.29533560	      4.92762309	     -6.24677807	      9.73097102	      5.44163723	    -11.10060329	     11.98639616	    -12.42678803	     -5.14466791	     -5.19704242	     -8.91647442
      5.42000000	      0.40691450	     -2.22430930	    284.16992794	     -0.63958923	      1.07177037	      0.25949470	     20.29771696	     -6.24045928	     -1.54543892	    -30.22780158	      8.17936742	      5.22365608	     -6.51684806	      9.49511484	      6.23185973	    -11.48557713	     12.38807598	    -12.47358625	     -5.06889682	     -5.00887392	     -9.00517569
      5.43000000	      0.34643281	     -2.26852038	    285.10689704	     -0.63738237	      1.07097894	      0.26745631	     20.42557933	     -5.95124556	     -1.72842827	    -28.13421761	      8.07501132	      5.74584066	     -6.91547484	      9.28133174	      7.03587271	    -11.83312893	     12.75949604	    -12.52049540	     -5.10680336	     -4.84891946	     -9.10467758
      5.44000000	      0.27550846	     -2.27181695	    285.99382127	     -0.63525547	      1.07004398	      0.27543689	     20.57417649	     -5.63850169	     -1.87948869	    -26.02980011	      7.92768968	      6.23623257	     -7.24272057	      9.05995580	      7.76871926	    -12.21540934	     13.14819284	    -12.56372445	     -5.08835018	     -4.69652770	     -9.14607101
      5.45000000	      0.21113414	     -2.28185070	    286.83235095	     -0.63317940	      1.06905943	      0.28346854	     20.68009794	     -5.30966864	     -1.99085307	    -23.90869263	      7.77403324	      6.78450116	     -7.57723481	      8.83502893	      8.45622095	    -12.59138139	     13.53161182	    -12.59063682	     -5.06815481	     -4.55261275	     -9.14422038
      5.46000000	      0.14680832	     -2.29452631	    287.61969891	     -0.63115131	      1.06802197	      0.29156577	     20.74849887	     -4.95858291	     -2.05088867	    -21.77610265	      7.63038111	      7.39095828	     -7.91498882	      8.60087092	      9.09232952	    -12.95910896	     13.91080879	    -12.59144559	     -5.03813750	     -4.41049333	     -9.09875398
      5.47000000	      0.06969351	     -2.31217344	    288.35776508	     -0.62917501	      1.06694171	      0.29974695	     20.77734288	     -4.57360692	     -2.05737381	    -19.63431517	      7.50541391	      8.07031270	     -8.25433450	      8.34329408	      9.67997655	    -13.31969516	     14.28972981	    -12.55810393	     -4.99535791	     -4.25746787	     -9.01592375
      5.48000000	     -0.02756965	     -2.33461766	    289.05256042	     -0.62723736	      1.06581783	      0.30802973	     20.76700856	     -4.15224549	     -2.00915393	    -17.48983963	      7.41337558	      8.82382900	     -8.58893267	      8.05589081	     10.22294691	    -13.68189745	     14.67119764	    -12.48768619	     -4.93583875	     -4.08575072	     -8.90656212
      5.49000000	     -0.15048769	     -2.36343615	    289.71825157	     -0.62530521	      1.06465403	      0.31642060	     20.71345027	     -3.69788587	     -1.90277831	    -15.34962651	      7.35329971	      9.66946497	     -8.91661275	      7.73292315	     10.72709160	    -14.04984612	     15.05376295	    -12.37690248	     -4.85912848	     -3.88729699	     -8.78693126
      5.50000000	     -0.29718326	     -2.39454861	    290.36784316	     -0.62334418	      1.06343521	      0.32492385	     20.62245371	     -3.22452065	     -1.74652578	    -13.23310181	      7.33869508	     10.57484365	     -9.22598976	      7.38053389	     11.20266141	    -14.44099102	     15.43977775	    -12.23650343	     -4.76150386	     -3.66410341	     -8.67573335
      5.51000000	     -0.45855991	     -2.42379588	    291.01364262	     -0.62131315	      1.06215041	      0.33353457	     20.50132923	     -2.75406618	     -1.53861432	    -11.17010411	      7.35982232	     11.52333154	     -9.51318216	      7.01131189	     11.65612971	    -14.86105809	     15.81985643	    -12.07249107	     -4.64352809	     -3.42506284	     -8.58537974
      5.52000000	     -0.62098668	     -2.44582290	    291.66334773	     -0.61917911	      1.06078773	      0.34224341	     20.36458634	     -2.31218618	     -1.28972559	     -9.20739439	      7.41563952	     12.47207216	     -9.77386689	      6.64440744	     12.09107477	    -15.31907376	     16.18342531	    -11.89447548	     -4.50708283	     -3.18510851	     -8.52519925
      5.53000000	     -0.76712051	     -2.45546482	    292.32125496	     -0.61691306	      1.05933911	      0.35104483	     20.23262083	     -1.92510056	     -1.01399360	     -7.41093584	      7.50476520	     13.35954244	    -10.01104306	      6.30074489	     12.51070531	    -15.81314949	     16.52455523	    -11.71211055	     -4.35482985	     -2.96225872	     -8.49537038
      5.54000000	     -0.88187868	     -2.45437610	    292.98605580	     -0.61451078	      1.05781211	      0.35992062	     20.13065475	     -1.60881419	     -0.73580369	     -5.86822290	      7.62740506	     14.12008571	    -10.23265539	      5.99695139	     12.91955959	    -16.34409821	     16.83989244	    -11.53073961	     -4.20014957	     -2.77132316	     -8.48929799
      5.55000000	     -0.95374160	     -2.44149889	    293.65070718	     -0.61198144	      1.05622241	      0.36887906	     20.08371583	     -1.36989047	     -0.48010984	     -4.66036210	      7.78636773	     14.69620536	    -10.44783709	      5.74358722	     13.31044813	    -16.90275153	     17.10817395	    -11.34682271	     -4.04896382	     -2.62505317	     -8.49609855
      5.56000000	     -0.98898465	     -2.41827163	    294.31898583	     -0.60931987	      1.05458786	      0.37793428	     20.11409899	     -1.19666268	     -0.29177059	     -3.85427721	      7.97207857	     14.99685864	    -10.66137042	      5.53059136	     13.68895936	    -17.48110186	     17.31366640	    -11.18807213	     -3.89797340	     -2.51570382	     -8.52016666
      5.57000000	     -0.95336758	     -2.39808010	    294.96470678	     -0.60657831	      1.05295411	      0.38707668	     20.20742276	     -1.10040773	     -0.10999849	     -3.48461609	      8.15733940	     15.08668626	    -10.91386952	      5.38759517	     14.06492988	    -18.05757827	     17.49000693	    -11.06004273	     -3.78583538	     -2.47552782	     -8.52393105
      5.58000000	     -0.88212371	     -2.39954223	    295.62443562	     -0.60368470	      1.05137312	      0.39638731	     20.34331043	     -1.04555685	     -0.06065605	     -3.54419973	      8.37920660	     15.01592182	    -11.21667634	      5.25441083	     14.43789884	    -18.62145793	     17.58151486	    -10.83853876	     -3.70088156	     -2.45746727	     -8.54542177
      5.59000000	     -0.78491151	     -2.40638555	    296.27281684	     -0.60070317	      1.04982621	      0.40585940	     20.50766605	     -1.01456510	      0.00260162	     -3.95250866	      8.51447883	     14.60345887	    -11.54357897	      5.13182643	     14.80047464	    -19.18446463	     17.62979611	    -10.45071689	     -3.62502021	     -2.45925398	     -8.56538421
      5.60000000	     -0.66234645	     -2.43883734	    296.93538092	     -0.59760078	      1.04837404	      0.41550453	     20.67018955	     -1.00379471	      0.02419721	     -4.67997768	      8.56494159	     14.01840548	    -11.92737867	      5.00205618	     15.20105818	    -19.72234622	     17.60120015	    -10.11389074	     -3.57742564	     -2.47298850	     -8.60228400
      5.61000000	     -0.53865831	     -2.49119805	    297.63125293	     -0.59436848	      1.04703638	      0.42530379	     20.79254719	     -0.99819770	      0.06380840	     -5.59669692	      8.44163725	     13.30715757	    -12.33571434	      4.83971733	     15.65184193	    -20.26091851	     17.51008980	     -9.71912906	     -3.53915188	     -2.47577898	     -8.68285600
